<svg width="32" height="32" viewBox="0 0 32 32" fill="none" xmlns="http://www.w3.org/2000/svg">
<path d="M30.5248 24.2634L30.5243 24.2608C30.0433 21.7394 27.8311 19.9093 25.2642 19.9093C24.9032 19.9093 24.5506 19.9457 24.2095 20.0142C24.1061 19.1927 23.7367 18.433 23.1419 17.8381L6.40041 1.09667C4.93811 -0.365558 2.55893 -0.365558 1.09663 1.09667C-0.365544 2.55891 -0.365544 4.93808 1.09663 6.40038L17.8381 23.1418C18.4483 23.752 19.2182 24.1065 20.0145 24.2074C19.9458 24.5492 19.9093 24.9024 19.9093 25.2641C19.9093 27.831 21.7394 30.0432 24.2633 30.5246L32 32L30.5248 24.2634ZM24.7293 28.0683C23.3852 27.8119 22.4096 26.6326 22.4096 25.2641C22.4096 23.6901 23.6902 22.4095 25.2642 22.4095C26.6326 22.4095 27.8118 23.3849 28.0683 24.729L28.8445 28.8444L24.7293 28.0683Z" fill="url(#paint0_linear)"/>
<defs>
<linearGradient id="paint0_linear" x1="0" y1="0" x2="32" y2="32" gradientUnits="userSpaceOnUse">
<stop stop-color="#FF3D00"/>
<stop offset="1" stop-color="#FEE500"/>
</linearGradient>
</defs>
</svg>
