<svg width="14" height="14" viewBox="0 0 10 10" fill="none" xmlns="http://www.w3.org/2000/svg">
<path d="M6.65 4.99968L9.74364 8.09332C10.0855 8.43513 10.0855 8.9893 9.74364 9.33058L9.33122 9.743C8.9893 10.0849 8.43513 10.0849 8.09385 9.743L5.00032 6.64947L1.90668 9.74364C1.56487 10.0855 1.0107 10.0855 0.669423 9.74364L0.256361 9.33122C-0.0854537 8.9893 -0.0854537 8.43513 0.256361 8.09385L3.35053 4.99968L0.257002 1.90615C-0.0849196 1.56423 -0.0849196 1.01006 0.257002 0.668781L0.669423 0.256361C1.01124 -0.0854539 1.5654 -0.0854539 1.90668 0.256361L5.00032 3.35L8.09385 0.256361C8.43577 -0.0854539 8.98994 -0.0854539 9.33122 0.256361L9.74364 0.668781C10.0855 1.0107 10.0855 1.56487 9.74364 1.90615L6.65 4.99968Z" fill="#ADADAD"/>
</svg>
