<svg width="21" height="21" viewBox="0 0 21 21" fill="none" xmlns="http://www.w3.org/2000/svg">
<path d="M20.5324 8.71992L18.0756 8.11699C17.9402 7.68633 17.768 7.26797 17.5588 6.86191L18.8139 4.77012C18.9615 4.52402 18.9246 4.21641 18.7277 4.01953L16.9805 2.27227C16.7836 2.07539 16.476 2.03848 16.2299 2.18613L14.1381 3.44121C13.732 3.23203 13.3137 3.05977 12.883 2.92441L12.2924 0.467578C12.2186 0.196875 11.9725 0 11.6895 0H9.22852C8.94551 0 8.69941 0.196875 8.62559 0.467578L8.03496 2.92441C7.6043 3.05977 7.18594 3.23203 6.77988 3.44121L4.68809 2.18613C4.44199 2.03848 4.13438 2.07539 3.9375 2.27227L2.19023 4.01953C1.99336 4.21641 1.95645 4.52402 2.1041 4.77012L3.35918 6.86191C3.15 7.26797 2.97773 7.68633 2.84238 8.11699L0.467578 8.71992C0.196875 8.78145 0 9.02754 0 9.31055V11.7715C0 12.0545 0.196875 12.3006 0.467578 12.3621L2.84238 12.965C2.97773 13.3957 3.15 13.8141 3.35918 14.2201L2.1041 16.3119C1.95645 16.558 1.99336 16.8656 2.19023 17.0625L3.9375 18.8098C4.13438 19.0066 4.44199 19.0436 4.68809 18.8959L6.77988 17.6408C7.18594 17.85 7.6043 18.0223 8.03496 18.1576L8.62559 20.5324C8.69941 20.8031 8.94551 21 9.22852 21H11.6895C11.9725 21 12.2186 20.8031 12.2924 20.5324L12.883 18.1576C13.3137 18.0223 13.732 17.85 14.1381 17.6408L16.2299 18.8959C16.476 19.0436 16.7836 19.0066 16.9805 18.8098L18.7277 17.0625C18.9246 16.8656 18.9615 16.558 18.8139 16.3119L17.5588 14.2201C17.768 13.8141 17.9402 13.3957 18.0756 12.965L20.5324 12.3621C20.8031 12.3006 21 12.0545 21 11.7715V9.31055C21 9.02754 20.8031 8.78145 20.5324 8.71992ZM10.459 13.6172C8.76094 13.6172 7.38281 12.2391 7.38281 10.541C7.38281 8.84297 8.76094 7.46484 10.459 7.46484C12.157 7.46484 13.5352 8.84297 13.5352 10.541C13.5352 12.2391 12.157 13.6172 10.459 13.6172Z" fill="#9C9C9C"/>
</svg>
